<mxfile host="app.diagrams.net" modified="2021-07-27T12:07:34.726Z" agent="5.0 (Windows NT 10.0; WOW64) AppleWebKit/537.36 (KHTML, like Gecko) Chrome/92.0.4515.107 Safari/537.36" etag="94zC04oUxtgxlK7n-Jrn" version="14.9.1" type="github">
  <diagram id="wjQlgHkREV75fNfG-BaF" name="Page-1">
    <mxGraphModel dx="1550" dy="1948" grid="1" gridSize="10" guides="1" tooltips="1" connect="1" arrows="1" fold="1" page="1" pageScale="1" pageWidth="827" pageHeight="1169" math="0" shadow="0">
      <root>
        <mxCell id="0" />
        <mxCell id="1" parent="0" />
        <mxCell id="Q2SOHH1CEXgP1fRX4kdI-5" style="edgeStyle=orthogonalEdgeStyle;rounded=0;orthogonalLoop=1;jettySize=auto;html=1;exitX=1;exitY=0.5;exitDx=0;exitDy=0;" parent="1" source="Q2SOHH1CEXgP1fRX4kdI-1" target="Q2SOHH1CEXgP1fRX4kdI-4" edge="1">
          <mxGeometry relative="1" as="geometry" />
        </mxCell>
        <mxCell id="Q2SOHH1CEXgP1fRX4kdI-1" value="开始串行发布" style="rounded=1;whiteSpace=wrap;html=1;" parent="1" vertex="1">
          <mxGeometry x="70" y="190" width="110" height="50" as="geometry" />
        </mxCell>
        <mxCell id="Q2SOHH1CEXgP1fRX4kdI-7" value="不使用分组串行发布" style="edgeStyle=orthogonalEdgeStyle;rounded=0;orthogonalLoop=1;jettySize=auto;html=1;exitX=0.5;exitY=0;exitDx=0;exitDy=0;entryX=0.5;entryY=1;entryDx=0;entryDy=0;" parent="1" source="Q2SOHH1CEXgP1fRX4kdI-4" target="Q2SOHH1CEXgP1fRX4kdI-6" edge="1">
          <mxGeometry relative="1" as="geometry" />
        </mxCell>
        <mxCell id="Q2SOHH1CEXgP1fRX4kdI-8" value="使用分组串行发布" style="edgeStyle=orthogonalEdgeStyle;rounded=0;orthogonalLoop=1;jettySize=auto;html=1;exitX=1;exitY=0.5;exitDx=0;exitDy=0;" parent="1" source="Q2SOHH1CEXgP1fRX4kdI-4" target="Q2SOHH1CEXgP1fRX4kdI-9" edge="1">
          <mxGeometry relative="1" as="geometry">
            <mxPoint x="510" y="215" as="targetPoint" />
          </mxGeometry>
        </mxCell>
        <mxCell id="Q2SOHH1CEXgP1fRX4kdI-4" value="选择串行发布模式" style="rhombus;whiteSpace=wrap;html=1;" parent="1" vertex="1">
          <mxGeometry x="260" y="175" width="140" height="80" as="geometry" />
        </mxCell>
        <mxCell id="Q2SOHH1CEXgP1fRX4kdI-6" value="原有发布逻辑" style="rounded=1;whiteSpace=wrap;html=1;" parent="1" vertex="1">
          <mxGeometry x="270" y="60" width="120" height="60" as="geometry" />
        </mxCell>
        <mxCell id="Q2SOHH1CEXgP1fRX4kdI-9" value="保存串行发布配置" style="rounded=1;whiteSpace=wrap;html=1;" parent="1" vertex="1">
          <mxGeometry x="550" y="185" width="120" height="60" as="geometry" />
        </mxCell>
        <mxCell id="Q2SOHH1CEXgP1fRX4kdI-16" value="页面自动刷新" style="endArrow=none;dashed=1;html=1;dashPattern=1 3;strokeWidth=2;exitX=1;exitY=0.5;exitDx=0;exitDy=0;entryX=0;entryY=0.5;entryDx=0;entryDy=0;" parent="1" source="Q2SOHH1CEXgP1fRX4kdI-9" edge="1">
          <mxGeometry width="50" height="50" relative="1" as="geometry">
            <mxPoint x="690" y="250" as="sourcePoint" />
            <mxPoint x="800" y="215" as="targetPoint" />
          </mxGeometry>
        </mxCell>
        <mxCell id="Q2SOHH1CEXgP1fRX4kdI-20" value="分组串行发布页面" style="rounded=1;whiteSpace=wrap;html=1;" parent="1" vertex="1">
          <mxGeometry x="800" y="185" width="150" height="55" as="geometry" />
        </mxCell>
        <mxCell id="Q2SOHH1CEXgP1fRX4kdI-28" style="edgeStyle=orthogonalEdgeStyle;rounded=0;orthogonalLoop=1;jettySize=auto;html=1;exitX=1;exitY=0.5;exitDx=0;exitDy=0;entryX=0;entryY=0.5;entryDx=0;entryDy=0;" parent="1" source="Q2SOHH1CEXgP1fRX4kdI-27" edge="1" target="Q2SOHH1CEXgP1fRX4kdI-29">
          <mxGeometry relative="1" as="geometry">
            <mxPoint x="260" y="445" as="targetPoint" />
          </mxGeometry>
        </mxCell>
        <mxCell id="Q2SOHH1CEXgP1fRX4kdI-27" value="启动所有串行发布/启动发布" style="rounded=1;whiteSpace=wrap;html=1;" parent="1" vertex="1">
          <mxGeometry x="70" y="380" width="110" height="50" as="geometry" />
        </mxCell>
        <mxCell id="YBDxrdvdxctRGu_Xbyn3-31" style="edgeStyle=orthogonalEdgeStyle;rounded=0;orthogonalLoop=1;jettySize=auto;html=1;exitX=1;exitY=0.5;exitDx=0;exitDy=0;entryX=0;entryY=0.5;entryDx=0;entryDy=0;endArrow=classic;endFill=1;" edge="1" parent="1" source="Q2SOHH1CEXgP1fRX4kdI-29" target="YBDxrdvdxctRGu_Xbyn3-13">
          <mxGeometry relative="1" as="geometry" />
        </mxCell>
        <mxCell id="Q2SOHH1CEXgP1fRX4kdI-29" value="查询分组串行发布list" style="rounded=1;whiteSpace=wrap;html=1;" parent="1" vertex="1">
          <mxGeometry x="220" y="380" width="110" height="50" as="geometry" />
        </mxCell>
        <mxCell id="-3DCe1lXib2HX8ghDhXW-1" value="分组串行发布页面" style="text;html=1;strokeColor=none;fillColor=none;align=center;verticalAlign=middle;whiteSpace=wrap;rounded=0;" parent="1" vertex="1">
          <mxGeometry x="30" y="300" width="190" height="50" as="geometry" />
        </mxCell>
        <mxCell id="-3DCe1lXib2HX8ghDhXW-2" value="原有版本计划生产发布页面(未配置分组串发之前显示)" style="text;html=1;strokeColor=none;fillColor=none;align=center;verticalAlign=middle;whiteSpace=wrap;rounded=0;" parent="1" vertex="1">
          <mxGeometry x="60" y="-40" width="190" height="60" as="geometry" />
        </mxCell>
        <mxCell id="YBDxrdvdxctRGu_Xbyn3-38" value="是" style="edgeStyle=orthogonalEdgeStyle;rounded=0;orthogonalLoop=1;jettySize=auto;html=1;exitX=0.5;exitY=1;exitDx=0;exitDy=0;endArrow=classic;endFill=1;" edge="1" parent="1" target="YBDxrdvdxctRGu_Xbyn3-37">
          <mxGeometry relative="1" as="geometry">
            <mxPoint x="495" y="550" as="sourcePoint" />
          </mxGeometry>
        </mxCell>
        <mxCell id="YBDxrdvdxctRGu_Xbyn3-43" value="否" style="edgeStyle=orthogonalEdgeStyle;rounded=0;orthogonalLoop=1;jettySize=auto;html=1;exitX=0;exitY=0.5;exitDx=0;exitDy=0;endArrow=classic;endFill=1;" edge="1" parent="1">
          <mxGeometry relative="1" as="geometry">
            <mxPoint x="340" y="519.5" as="targetPoint" />
            <mxPoint x="447.5" y="519.5" as="sourcePoint" />
          </mxGeometry>
        </mxCell>
        <mxCell id="YBDxrdvdxctRGu_Xbyn3-32" style="edgeStyle=orthogonalEdgeStyle;rounded=0;orthogonalLoop=1;jettySize=auto;html=1;exitX=0.5;exitY=1;exitDx=0;exitDy=0;endArrow=classic;endFill=1;" edge="1" parent="1" source="YBDxrdvdxctRGu_Xbyn3-13">
          <mxGeometry relative="1" as="geometry">
            <mxPoint x="495" y="480" as="targetPoint" />
          </mxGeometry>
        </mxCell>
        <mxCell id="YBDxrdvdxctRGu_Xbyn3-33" style="edgeStyle=orthogonalEdgeStyle;rounded=0;orthogonalLoop=1;jettySize=auto;html=1;exitX=1;exitY=0.5;exitDx=0;exitDy=0;entryX=0;entryY=0.5;entryDx=0;entryDy=0;endArrow=classic;endFill=1;" edge="1" parent="1" source="YBDxrdvdxctRGu_Xbyn3-13" target="YBDxrdvdxctRGu_Xbyn3-29">
          <mxGeometry relative="1" as="geometry" />
        </mxCell>
        <mxCell id="YBDxrdvdxctRGu_Xbyn3-13" value="调用串行发布方法" style="rounded=1;whiteSpace=wrap;html=1;" vertex="1" parent="1">
          <mxGeometry x="440" y="380" width="110" height="50" as="geometry" />
        </mxCell>
        <mxCell id="YBDxrdvdxctRGu_Xbyn3-28" value="返回给前端页面，等待所有分组串行发布结束" style="rounded=1;whiteSpace=wrap;html=1;" vertex="1" parent="1">
          <mxGeometry x="880" y="380" width="140" height="50" as="geometry" />
        </mxCell>
        <mxCell id="YBDxrdvdxctRGu_Xbyn3-34" value="否" style="edgeStyle=orthogonalEdgeStyle;rounded=0;orthogonalLoop=1;jettySize=auto;html=1;exitX=1;exitY=0.5;exitDx=0;exitDy=0;endArrow=classic;endFill=1;" edge="1" parent="1" source="YBDxrdvdxctRGu_Xbyn3-29" target="YBDxrdvdxctRGu_Xbyn3-28">
          <mxGeometry relative="1" as="geometry">
            <Array as="points">
              <mxPoint x="790" y="405" />
              <mxPoint x="790" y="405" />
            </Array>
            <mxPoint as="offset" />
          </mxGeometry>
        </mxCell>
        <mxCell id="YBDxrdvdxctRGu_Xbyn3-35" style="edgeStyle=orthogonalEdgeStyle;rounded=0;orthogonalLoop=1;jettySize=auto;html=1;exitX=0.5;exitY=0;exitDx=0;exitDy=0;entryX=0;entryY=0.5;entryDx=0;entryDy=0;endArrow=classic;endFill=1;" edge="1" parent="1" source="YBDxrdvdxctRGu_Xbyn3-29" target="YBDxrdvdxctRGu_Xbyn3-13">
          <mxGeometry relative="1" as="geometry">
            <Array as="points">
              <mxPoint x="705" y="320" />
              <mxPoint x="410" y="320" />
              <mxPoint x="410" y="405" />
            </Array>
          </mxGeometry>
        </mxCell>
        <mxCell id="YBDxrdvdxctRGu_Xbyn3-36" value="是" style="edgeLabel;html=1;align=center;verticalAlign=middle;resizable=0;points=[];" vertex="1" connectable="0" parent="YBDxrdvdxctRGu_Xbyn3-35">
          <mxGeometry x="-0.3738" relative="1" as="geometry">
            <mxPoint x="-58" as="offset" />
          </mxGeometry>
        </mxCell>
        <mxCell id="YBDxrdvdxctRGu_Xbyn3-29" value="有未发布的分组" style="rhombus;whiteSpace=wrap;html=1;" vertex="1" parent="1">
          <mxGeometry x="650" y="365" width="110" height="80" as="geometry" />
        </mxCell>
        <mxCell id="YBDxrdvdxctRGu_Xbyn3-40" style="edgeStyle=orthogonalEdgeStyle;rounded=0;orthogonalLoop=1;jettySize=auto;html=1;endArrow=classic;endFill=1;" edge="1" parent="1" source="YBDxrdvdxctRGu_Xbyn3-37" target="YBDxrdvdxctRGu_Xbyn3-39">
          <mxGeometry relative="1" as="geometry" />
        </mxCell>
        <mxCell id="YBDxrdvdxctRGu_Xbyn3-37" value="调用发布接口" style="rounded=1;whiteSpace=wrap;html=1;" vertex="1" parent="1">
          <mxGeometry x="440" y="590" width="110" height="40" as="geometry" />
        </mxCell>
        <mxCell id="YBDxrdvdxctRGu_Xbyn3-42" value="回调" style="edgeStyle=orthogonalEdgeStyle;rounded=0;orthogonalLoop=1;jettySize=auto;html=1;exitX=1;exitY=0.5;exitDx=0;exitDy=0;entryX=1;entryY=0.5;entryDx=0;entryDy=0;endArrow=classic;endFill=1;" edge="1" parent="1" source="YBDxrdvdxctRGu_Xbyn3-39" target="YBDxrdvdxctRGu_Xbyn3-45">
          <mxGeometry relative="1" as="geometry">
            <mxPoint x="552.5" y="530" as="targetPoint" />
            <Array as="points">
              <mxPoint x="580" y="690" />
              <mxPoint x="580" y="520" />
            </Array>
          </mxGeometry>
        </mxCell>
        <mxCell id="YBDxrdvdxctRGu_Xbyn3-39" value="发布" style="rounded=1;whiteSpace=wrap;html=1;" vertex="1" parent="1">
          <mxGeometry x="440" y="670" width="110" height="40" as="geometry" />
        </mxCell>
        <mxCell id="YBDxrdvdxctRGu_Xbyn3-44" value="当前分组串行发布结束" style="rounded=1;whiteSpace=wrap;html=1;" vertex="1" parent="1">
          <mxGeometry x="220" y="495" width="120" height="50" as="geometry" />
        </mxCell>
        <mxCell id="YBDxrdvdxctRGu_Xbyn3-45" value="找到下一台&lt;br&gt;发布IP" style="rhombus;whiteSpace=wrap;html=1;" vertex="1" parent="1">
          <mxGeometry x="447.5" y="480" width="95" height="80" as="geometry" />
        </mxCell>
        <mxCell id="YBDxrdvdxctRGu_Xbyn3-47" style="edgeStyle=orthogonalEdgeStyle;rounded=0;orthogonalLoop=1;jettySize=auto;html=1;exitX=0.5;exitY=1;exitDx=0;exitDy=0;endArrow=classic;endFill=1;" edge="1" parent="1" source="YBDxrdvdxctRGu_Xbyn3-29" target="YBDxrdvdxctRGu_Xbyn3-29">
          <mxGeometry relative="1" as="geometry" />
        </mxCell>
      </root>
    </mxGraphModel>
  </diagram>
</mxfile>
